HIERARCHY
ROOT hip
{
	OFFSET 0.000000 0.000000 0.000000
	CHANNELS 6  Xposition Yposition Zposition Xrotation Zrotation Yrotation
	JOINT abdomen
	{
		OFFSET 0.000000 3.402643 0.000000
			CHANNELS 3 Xrotation Zrotation Yrotation
		JOINT chest
		{
			OFFSET 0.000000 8.438565 -0.680529
				CHANNELS 3 Xrotation Zrotation Yrotation
			JOINT neck
			{
				OFFSET 0.000000 10.207942 -0.272212
					CHANNELS 3 Xrotation Zrotation Yrotation
				JOINT head
				{
					OFFSET 0.000000 3.130431 0.000000
						CHANNELS 3 Xrotation Zrotation Yrotation
					End Site
					{
						OFFSET 0.000000 3.130435 0.000000
					}
				}
			}
			JOINT lCollar
			{
				OFFSET 3.470700 6.669187 -0.816635
					CHANNELS 3 Yrotation Zrotation Xrotation
				JOINT lShldr
				{
					OFFSET 3.198488 0.000000 0.000000
						CHANNELS 3 Zrotation Yrotation Xrotation
					JOINT lForeArm
					{
						OFFSET 10.139888 0.000000 0.000000
							CHANNELS 3 Yrotation Zrotation Xrotation
						JOINT lHand
						{
							OFFSET 8.370511 0.000000 0.000000
								CHANNELS 3 Zrotation Yrotation Xrotation
							End Site
							{
								OFFSET 4.083176 0.000000 0.000000
							}
						}
					}
				}
			}
			JOINT rCollar
			{
				OFFSET -3.470700 6.669187 -0.816635
					CHANNELS 3 Yrotation Zrotation Xrotation
				JOINT rShldr
				{
					OFFSET -3.198488 0.000000 0.000000
						CHANNELS 3 Zrotation Yrotation Xrotation
					JOINT rForeArm
					{
						OFFSET -10.139888 0.000000 0.000000
							CHANNELS 3 Yrotation Zrotation Xrotation
						JOINT rHand
						{
							OFFSET -8.370511 0.000000 0.000000
								CHANNELS 3 Zrotation Yrotation Xrotation
							End Site
							{
								OFFSET -4.083176 0.000000 0.000000
							}
						}
					}
				}
			}
		}
	}
	JOINT lThigh 
	{
		OFFSET 5.308129 -1.633274 1.361059
			CHANNELS 3 Xrotation Zrotation Yrotation
		JOINT lShin
		{
			OFFSET -2.041588 -20.007561 0.000000
				CHANNELS 3 Xrotation Zrotation Yrotation
			JOINT lFoot
			{
				OFFSET 0.000000 -19.190928 -1.224953
					CHANNELS 3 Xrotation Yrotation Zrotation
				End Site
				{
					OFFSET 0.000000 -2.449906 4.627600
				}
			}
		}
	}
	JOINT rThigh
	{
		OFFSET -5.308129 -1.633274 1.361059
			CHANNELS 3 Xrotation Zrotation Yrotation
		JOINT rShin
		{
			OFFSET 2.041588 -20.007561 0.000000
				CHANNELS 3 Xrotation Zrotation Yrotation
			JOINT rFoot
			{
				OFFSET 0.000000 -19.190928 -1.224953
					CHANNELS 3 Xrotation Yrotation Zrotation
				End Site
				{
					OFFSET 0.000000 -2.449906 4.627600
				}
			}
		}
	}
}
MOTION
Frames: 18
Frame Time: 0.032000
1548.947998 44.589069 3397.642578 -3.07 -5.54 29.22 13.42 9.00 10.13 -0.53 0.38 2.23 8.81 -6.44 -7.90 -4.77 5.85 -14.41 0.00 -0.00 -0.00 -81.21 3.75 16.69 -25.04 14.83 -0.26 -0.00 0.13 -0.96 0.00 -0.00 -0.00 77.56 5.09 10.38 24.74 -14.66 -0.30 0.07 -1.02 -7.30 -38.80 11.69 -1.05 42.47 0.30 -0.30 -7.09 2.37 1.00 7.77 11.95 1.17 7.37 -0.03 0.04 -5.08 6.68 0.42 
1369.543579 48.481602 3244.697510 21.53 -11.03 24.45 3.27 2.80 -12.82 1.40 1.19 -5.49 -5.23 1.04 7.18 6.59 -0.98 7.36 2.77 -1.79 -0.09 -86.00 -16.40 7.21 -114.52 3.23 40.04 11.90 13.53 2.79 4.44 -7.46 -0.08 61.61 -38.25 22.80 88.25 -2.77 32.08 -34.23 9.91 -6.89 -21.80 3.37 1.06 38.86 -0.65 -2.58 9.92 -8.46 -10.70 -70.87 -7.53 -4.50 103.16 -3.84 3.51 -0.00 -0.00 0.00 
1377.182129 48.252151 3235.353516 23.94 -11.70 22.26 4.18 5.74 -16.14 1.79 2.46 -6.92 -8.92 3.43 6.92 7.90 -3.01 7.50 2.33 -1.34 -0.13 -87.28 -23.18 11.58 -119.22 3.10 38.97 15.70 16.55 4.49 5.23 -11.22 -0.01 55.43 -45.80 26.79 88.19 -1.33 13.42 -29.14 15.14 -8.42 -19.52 4.46 -1.53 36.73 -0.93 -2.59 6.99 -3.61 -11.50 -81.21 -4.88 -0.48 105.31 -3.66 3.20 -0.00 -0.00 0.00 
1385.341675 49.953053 3253.194580 24.07 -13.43 20.91 3.32 7.50 -15.36 1.42 3.21 -6.58 -7.61 4.39 7.99 7.99 -6.77 8.77 3.33 -0.33 -0.16 -85.99 -20.55 10.67 -121.92 3.27 41.32 17.48 18.87 5.77 6.87 -12.95 -0.02 53.03 -55.58 28.55 90.74 -1.93 21.19 -32.88 15.61 -10.11 -11.36 8.30 3.80 34.24 -0.94 -2.61 21.97 -4.79 -10.39 -78.90 -1.52 0.88 79.21 -2.23 3.89 -0.00 -0.00 0.00 
1387.532593 50.693954 3260.078125 24.81 -12.12 19.57 3.25 8.58 -15.34 1.39 3.67 -6.57 -7.67 4.18 8.59 8.00 -8.82 9.31 3.57 -0.90 -0.13 -84.63 -16.74 9.25 -121.17 3.27 42.14 16.05 14.74 4.20 7.85 -13.25 -0.08 57.71 -61.85 20.92 92.09 -2.65 29.47 -37.97 19.65 -14.84 -9.47 7.28 4.08 46.37 -0.30 -3.05 27.01 -4.65 -9.95 -72.69 -2.51 1.32 53.82 -0.64 3.24 -0.00 -0.00 0.00 
1393.270264 50.300930 3275.994629 24.50 -9.78 18.54 4.53 9.31 -14.32 1.93 3.99 -6.13 -8.41 3.75 8.23 7.70 -11.43 9.00 3.67 -1.58 -0.07 -84.40 -12.71 9.33 -117.18 3.62 46.40 12.83 13.24 3.04 6.66 -12.04 -0.17 68.07 -57.53 7.36 92.83 -2.78 31.33 -35.73 20.84 -14.50 -11.59 4.53 2.77 69.04 0.60 -3.60 30.94 -6.45 -8.73 -64.45 -4.39 0.42 34.71 0.58 2.38 -0.00 -0.00 0.00 
1392.133423 48.921261 3275.316650 22.86 -9.30 17.93 3.68 10.14 -10.20 1.57 4.34 -4.37 -4.92 2.07 6.64 7.34 -12.88 7.34 2.03 -1.49 -0.12 -85.46 -4.60 12.08 -109.90 3.59 44.59 13.30 16.30 3.71 5.18 -7.34 -0.07 67.28 -47.22 5.19 93.91 -2.53 29.83 -30.73 14.03 -8.40 -14.93 3.62 5.27 92.56 2.06 -3.93 31.69 -2.44 -10.98 -57.70 -4.12 -4.31 34.75 0.86 2.16 -0.00 -0.00 0.00 
1394.271118 46.976845 3282.075928 21.87 -11.26 17.43 2.78 12.46 -4.26 1.20 5.34 -1.82 -3.94 -0.20 5.35 6.71 -14.15 5.81 2.17 -2.95 -0.06 -85.98 3.00 14.12 -100.59 3.23 40.39 12.94 17.12 3.87 3.92 -3.02 -0.07 65.13 -30.91 5.07 94.59 -2.43 27.87 -27.42 11.35 -6.05 -24.28 6.28 8.15 114.15 3.36 -3.71 34.65 -4.70 -9.13 -51.71 -1.81 -9.65 41.92 0.47 2.39 -0.00 -0.00 0.00 
1396.367188 45.457287 3288.710693 20.72 -14.72 17.13 3.97 14.48 1.97 1.70 6.21 0.85 -7.60 -0.59 4.71 7.16 -16.33 5.32 1.58 -3.17 -0.09 -86.40 10.80 11.91 -94.26 3.16 38.56 14.79 19.03 4.90 4.37 -0.56 -0.13 65.82 -9.69 6.89 96.41 -2.37 27.75 -27.18 12.22 -6.31 -41.04 10.63 6.37 129.40 4.22 -2.94 39.22 -10.35 -4.53 -46.89 3.78 -8.79 49.91 0.08 3.24 -0.00 -0.00 0.00 
1401.074707 45.751129 3303.427979 21.71 -13.44 16.49 4.12 11.53 6.64 1.76 4.94 2.85 -7.16 -0.04 3.38 6.10 -15.42 4.18 0.62 -0.73 -0.17 -83.63 21.31 11.77 -93.06 2.85 35.11 15.26 22.43 5.97 6.36 -2.33 -0.02 73.18 8.01 8.96 100.08 -2.69 31.57 -30.57 13.43 -7.86 -61.65 8.16 3.41 129.53 4.54 -3.17 38.78 -7.24 -6.91 -37.50 3.73 -3.73 49.49 0.07 3.15 -0.00 -0.00 0.00 
1400.843750 47.302517 3303.437012 23.01 -9.35 15.91 3.13 8.01 9.77 1.33 3.43 4.18 -5.87 -1.31 -0.25 8.58 -12.22 -0.01 0.38 0.38 -0.06 -74.08 31.05 20.32 -97.17 2.79 32.56 14.37 21.03 5.28 5.49 -5.30 -0.02 78.00 18.00 13.65 107.48 -2.63 31.79 -31.31 9.59 -5.90 -73.46 0.63 1.21 115.79 3.99 -3.21 31.22 -1.17 -11.65 -25.06 -1.44 -2.69 44.83 -0.02 2.78 -0.00 -0.00 0.00 
1406.433594 49.192162 3321.186035 24.83 -5.93 15.41 1.38 4.56 12.54 0.60 1.95 5.37 -4.76 -3.20 -3.94 9.99 -9.13 -4.02 -1.05 1.58 -0.15 -63.47 39.99 27.67 -103.25 2.56 29.84 12.23 19.25 4.02 3.99 -7.22 -0.02 77.79 19.79 16.88 114.95 -2.65 32.07 -30.74 9.13 -5.54 -76.20 -4.92 -0.60 93.49 2.60 -4.10 26.74 -1.31 -11.69 -15.73 -6.31 -4.89 40.53 0.16 2.31 -0.00 -0.00 0.00 
1405.799927 50.382347 3319.590332 24.83 -6.23 15.19 0.59 2.56 15.57 0.25 1.09 6.68 -4.88 -4.20 -5.92 9.95 -6.45 -6.20 -2.05 2.17 -0.10 -54.19 47.99 31.60 -109.27 2.11 25.09 12.24 18.13 3.85 3.25 -7.99 -0.13 75.70 18.22 18.95 119.08 -2.58 32.10 -30.44 11.39 -6.75 -71.96 -3.72 -3.05 65.23 0.49 -4.15 23.43 -2.55 -11.17 -10.27 -6.08 -5.32 44.89 0.11 2.74 -0.00 -0.00 0.00 
1407.919800 50.454884 3326.530273 23.36 -8.13 15.23 1.27 1.08 16.87 0.55 0.46 7.23 -5.95 -3.61 -6.22 10.17 -4.25 -6.50 -2.28 2.57 -0.09 -53.63 52.25 27.66 -112.75 2.18 25.23 11.44 16.78 3.38 3.96 -7.54 -0.03 74.85 14.31 21.52 118.13 -2.62 31.53 -31.86 9.60 -6.16 -63.92 0.05 -4.10 36.74 -0.96 -2.87 23.06 -1.52 -11.62 -8.96 -3.78 -4.99 60.54 -0.57 3.06 -0.00 -0.00 0.00 
1413.100952 49.434933 3343.592285 21.53 -8.17 15.32 1.74 0.20 14.76 0.74 0.09 6.33 -4.57 -2.67 -5.47 9.36 -2.28 -5.60 -1.76 1.99 -0.09 -61.24 48.91 19.87 -112.74 2.21 25.83 11.86 16.45 3.45 4.35 -7.15 -0.13 76.52 7.90 23.21 112.05 -2.55 31.20 -32.89 7.89 -5.24 -57.49 1.67 -1.70 25.96 -1.07 -2.31 23.23 -0.50 -12.22 -9.59 -2.54 -6.30 78.48 -1.90 3.41 -0.00 -0.00 0.00 
1412.348877 47.628929 3341.150146 20.52 -7.98 15.35 1.31 -0.80 10.41 0.56 -0.34 4.46 -2.89 -1.67 -3.46 7.95 -0.26 -3.43 0.28 -1.63 -0.07 -67.04 38.13 15.21 -111.47 2.37 28.16 13.10 15.67 3.58 4.71 -6.16 -0.02 78.18 -0.78 24.87 102.39 -2.67 30.21 -39.82 2.48 -1.92 -53.02 3.45 2.08 31.57 -1.05 -2.64 18.12 -4.45 -11.10 -15.62 -4.68 -8.43 98.22 -3.46 3.45 -0.00 -0.00 0.00 
1414.527954 46.018330 3348.285156 21.42 -5.53 15.18 1.82 -3.02 4.93 0.78 -1.28 2.11 -4.19 -0.74 -1.25 6.11 1.19 -1.21 2.01 -4.97 -0.11 -70.89 22.92 13.39 -109.77 2.54 30.54 13.87 15.43 3.68 5.01 -5.34 -0.05 79.44 -8.10 20.97 92.47 -2.76 31.48 -40.83 6.30 -5.28 -50.37 1.80 6.31 42.69 -0.73 -2.88 3.69 -5.37 -11.69 -27.13 -9.97 -7.54 114.42 -4.45 2.90 -0.00 -0.00 0.00 
1418.690552 45.333675 3362.460693 21.97 -2.48 15.11 4.33 -4.80 -2.32 1.85 -2.05 -0.99 -6.56 0.36 0.61 4.92 3.71 0.60 0.31 -5.31 -0.15 -75.90 1.22 10.89 -108.18 2.84 34.86 13.18 14.22 3.18 5.38 -5.14 -0.05 80.25 -18.54 10.64 85.08 -3.00 35.34 -34.41 10.62 -7.40 -42.87 -2.40 5.09 48.83 -0.81 -3.20 -6.60 -2.23 -12.46 -46.20 -13.88 -3.91 124.62 -4.91 2.26 -0.00 -0.00 0.00 
